<?xml version="1.0" standalone="no"?>
<!DOCTYPE svg PUBLIC "-//W3C//DTD SVG 20010904//EN"
 "http://www.w3.org/TR/2001/REC-SVG-20010904/DTD/svg10.dtd">
<svg version="1.0" xmlns="http://www.w3.org/2000/svg"
 width="352.000000pt" height="352.000000pt" viewBox="0 0 352.000000 352.000000"
 preserveAspectRatio="xMidYMid meet">
<metadata>
Created by potrace 1.11, written by Peter Selinger 2001-2013
</metadata>
<g transform="translate(0.000000,352.000000) scale(0.100000,-0.100000)"
fill="#000000" stroke="none">
<path d="M1737 3514 c-1 -1 -47 -4 -102 -8 -722 -45 -1358 -556 -1558 -1251
-27 -93 -31 -112 -47 -205 -62 -353 -6 -735 155 -1064 39 -79 156 -272 174
-286 3 -3 24 -27 45 -55 94 -118 272 -276 416 -367 205 -129 473 -229 680
-253 30 -3 67 -8 83 -11 39 -8 292 -7 357 1 539 66 993 342 1282 780 114 173
220 421 244 570 3 17 7 37 10 45 3 8 8 33 11 55 3 22 9 60 14 85 8 47 5 399
-5 460 -31 185 -78 338 -152 496 -36 78 -123 228 -155 268 -5 6 -35 45 -68 86
-175 223 -433 415 -705 524 -81 33 -232 80 -291 90 -16 3 -43 8 -58 12 -59 13
-320 35 -330 28z m256 -1095 c34 -36 84 -90 111 -120 27 -30 92 -101 145 -159
53 -57 125 -136 160 -175 36 -38 90 -97 120 -130 31 -33 101 -109 156 -170 55
-60 119 -130 142 -155 l43 -45 0 508 c0 279 3 508 8 508 4 1 78 2 165 3 l157
1 0 -727 0 -727 -164 0 -165 0 -95 103 c-53 56 -105 113 -116 127 -21 23 -146
160 -270 294 -35 38 -69 75 -75 81 -45 50 -165 181 -185 203 -142 153 -233
253 -261 286 -65 76 9 70 -832 71 -416 0 -760 4 -763 7 -4 3 47 64 112 134 65
70 123 133 128 138 5 7 256 10 713 10 l705 0 61 -66z m-1168 -411 c21 -24 83
-92 138 -151 55 -59 109 -118 119 -130 11 -12 59 -65 108 -117 48 -52 97 -106
108 -120 l20 -25 -41 -45 c-23 -25 -87 -94 -142 -154 -55 -60 -126 -137 -158
-172 l-58 -62 -324 0 c-179 -1 -325 2 -325 7 0 4 12 20 28 37 15 16 72 77 126
137 l98 107 133 0 133 0 66 72 c36 40 66 74 66 77 0 4 -24 31 -53 62 -46 50
-98 107 -292 318 -27 31 -59 65 -70 77 -81 86 -105 114 -105 118 0 3 87 6 194
6 l194 0 37 -42z m975 -468 l0 -510 -166 2 -166 3 0 460 c0 253 1 481 1 508
l1 47 165 0 165 0 0 -510z"/>
</g>
</svg>
